HIERARCHY
ROOT Hips
{
  OFFSET 0 89.5177 0.535
  CHANNELS 6 Xposition Yposition Zposition Zrotation Xrotation Yrotation
  JOINT Spine
  {
    OFFSET 12.0259 -0.162855 1.69034e-005
    CHANNELS 3 Zrotation Xrotation Yrotation
    JOINT Spine1
    {
      OFFSET 15.3169 -0.0121922 0
      CHANNELS 3 Zrotation Xrotation Yrotation
      JOINT Spine2
      {
        OFFSET 15.3176 -0.0121908 0
        CHANNELS 3 Zrotation Xrotation Yrotation
        JOINT Neck
        {
          OFFSET 19.9142 1.56338 0
          CHANNELS 3 Zrotation Xrotation Yrotation
          JOINT Head
          {
            OFFSET 6.92651 0 0
            CHANNELS 3 Zrotation Xrotation Yrotation
            End Site
            {
              OFFSET 20.7666 0 0
            }
          }
          JOINT LeftShoulder
          {
            OFFSET -6.20654 0.708824 7.28219
            CHANNELS 3 Zrotation Xrotation Yrotation
            JOINT LeftArm
            {
              OFFSET 14.108 0 -1.52588e-005
              CHANNELS 3 Zrotation Xrotation Yrotation
              JOINT LeftForeArm
              {
                OFFSET 28.5802 0 0
                CHANNELS 3 Zrotation Xrotation Yrotation
                JOINT LeftHand
                {
                  OFFSET 27.092 0 0
                  CHANNELS 3 Zrotation Xrotation Yrotation
                  End Site
                  {
                    OFFSET 9.55928 -0.186424 0.145352
                  }
                }
              }
            }
          }
          JOINT RightShoulder
          {
            OFFSET -6.20654 0.708866 -7.28218
            CHANNELS 3 Zrotation Xrotation Yrotation
            JOINT RightArm
            {
              OFFSET 14.108 0 1.52588e-005
              CHANNELS 3 Zrotation Xrotation Yrotation
              JOINT RightForeArm
              {
                OFFSET 28.5802 0 0
                CHANNELS 3 Zrotation Xrotation Yrotation
                JOINT RightHand
                {
                  OFFSET 27.092 0 0
                  CHANNELS 3 Zrotation Xrotation Yrotation
                  End Site
                  {
                    OFFSET 9.55929 -0.186417 -0.145354
                  }
                }
              }
            }
          }
        }
      }
    }
  }
  JOINT LeftUpLeg
  {
    OFFSET 0.005 -0.535 8.837
    CHANNELS 3 Zrotation Xrotation Yrotation
    JOINT LeftLeg
    {
      OFFSET 39.9035 0 0
      CHANNELS 3 Zrotation Xrotation Yrotation
      JOINT LeftFoot
      {
        OFFSET 39.6689 0 0
        CHANNELS 3 Zrotation Xrotation Yrotation
        JOINT LeftToe
        {
          OFFSET 10.1624 13.6296 0
          CHANNELS 3 Zrotation Xrotation Yrotation
          End Site
          {
            OFFSET 8.38147 0 0
          }
        }
      }
    }
  }
  JOINT RightUpLeg
  {
    OFFSET 0.005 -0.535 -8.837
    CHANNELS 3 Zrotation Xrotation Yrotation
    JOINT RightLeg
    {
      OFFSET 39.9035 0 0
      CHANNELS 3 Zrotation Xrotation Yrotation
      JOINT RightFoot
      {
        OFFSET 39.6689 0 0
        CHANNELS 3 Zrotation Xrotation Yrotation
        JOINT RightToe
        {
          OFFSET 10.1624 13.6296 0
          CHANNELS 3 Zrotation Xrotation Yrotation
          End Site
          {
            OFFSET 8.38147 0 0
          }
        }
      }
    }
  }
}
MOTION
Frames:	11
Frame Time:	0.0333333
519.781 85.7933 -170.161 164.108 -82.8247 74.3114 -1.41857 -0.0764476 -0.62514 -2.83789 -0.136928 -1.25179 -2.83789 -0.136928 -1.2518 -8.30738e-012 -9.0191e-006 -5.27751e-005 9.55892 22.9142 -7.47512 178.803 -16.2011 -94.2823 -30.359 -48.5243 -2.99839 -6.29952e-006 0 -0 -47.8004 -28.0126 -38.1072 178.787 6.93393 99.9457 67.9265 65.7493 -78.4036 -1.41776 -1.59028e-015 -7.95139e-016 -41.1681 14.8086 22.1427 -17.2741 2.19206 -178.486 -32.5608 0 1.98785e-016 22.3029 5.01839 -1.41969 90 5.1304e-021 -0 -15.1376 -6.57021 179.46 -31.6882 7.95139e-016 7.95139e-016 23.5339 -0.589053 -0.722705 90 -1.31755e-020 7.95139e-016 
519.74 85.7916 -170.233 164.18 -82.803 74.374 -1.42838 -0.0813686 -0.621134 -2.85756 -0.146761 -1.24392 -2.85756 -0.146761 -1.24393 -8.30753e-012 -9.0191e-006 -5.27751e-005 9.61308 22.3675 -7.29101 178.809 -16.195 -94.2631 -30.2273 -48.228 -2.91093 -6.33929e-006 -9.54166e-015 -1.59028e-015 -47.8832 -28.1319 -38.2741 178.781 6.9237 100.011 67.5512 65.5959 -78.0671 -1.51088 -1.59028e-015 -1.59028e-015 -41.0814 14.9687 22.2861 -17.2359 2.22498 -178.502 -32.5432 0 -5.96354e-016 22.3455 5.04391 -1.39201 90 6.63515e-021 -9.93923e-017 -15.08 -6.53398 179.444 -31.6403 -7.95139e-016 -1.19271e-015 23.5651 -0.579049 -0.683461 90 -2.84364e-021 -0 
519.694 85.7919 -170.31 164.253 -82.8026 74.4647 -1.43148 -0.0902968 -0.621966 -2.86385 -0.164588 -1.24571 -2.86385 -0.164588 -1.24572 -8.30748e-012 -9.0191e-006 -5.27751e-005 9.76693 22.0012 -7.17707 178.816 -16.2519 -94.2231 -30.173 -48.1752 -2.83577 -6.3792e-006 6.36111e-015 3.18055e-015 -47.8141 -28.2255 -38.2453 178.767 6.97587 100.047 67.8406 65.5898 -78.4876 -1.53336 -7.95139e-016 -0 -41.149 14.9172 22.2596 -17.1445 2.20359 -178.558 -32.4861 0 -7.95139e-016 22.3787 5.01149 -1.36159 90 7.61858e-021 2.98177e-016 -15.0162 -6.52775 179.395 -31.6065 0 3.97569e-016 23.6 -0.57978 -0.644311 90 -2.12258e-020 1.59028e-015 
519.651 85.792 -170.374 164.422 -82.7779 74.6365 -1.44071 -0.0919043 -0.62351 -2.88234 -0.167599 -1.24904 -2.88234 -0.167599 -1.24905 -8.30753e-012 -9.0191e-006 -5.27751e-005 9.97358 21.6453 -7.07853 178.805 -16.2266 -94.2706 -30.0075 -48.2692 -2.67974 -6.41926e-006 -6.36111e-015 -0 -47.7229 -28.217 -38.1396 178.76 7.0259 100.035 67.8555 65.5938 -78.614 -1.57587 -7.95139e-016 -0 -41.1113 14.8261 22.1004 -17.098 2.15511 -178.602 -32.4469 0 -1.98785e-016 22.4115 4.95587 -1.33201 90 -6.16121e-022 -1.98785e-016 -14.9848 -6.53976 179.361 -31.5685 7.95139e-016 7.95139e-016 23.6231 -0.603795 -0.606626 90 -1.09006e-020 -7.95139e-016 
519.6 85.7921 -170.432 164.415 -82.754 74.6397 -1.4422 -0.100949 -0.624341 -2.88542 -0.185684 -1.25084 -2.88542 -0.185684 -1.25085 -8.30733e-012 -9.0191e-006 -5.27751e-005 10.1589 21.4335 -7.03086 178.813 -16.2017 -94.2486 -29.8485 -47.9632 -2.5705 -6.45945e-006 3.18055e-015 1.59028e-015 -47.6406 -28.3912 -38.1939 178.755 7.02332 100.077 67.7846 65.5687 -78.6241 -1.592 1.59028e-015 -0 -41.0934 14.91 22.1432 -17.0625 2.16917 -178.652 -32.4121 0 5.96354e-016 22.4314 4.95586 -1.29397 90 -4.88158e-021 1.98785e-016 -14.9516 -6.52072 179.317 -31.5387 -1.59028e-015 -0 23.6506 -0.575457 -0.565431 90 -1.76306e-020 -0 
519.564 85.7923 -170.477 164.465 -82.7309 74.6727 -1.43911 -0.113534 -0.62357 -2.87938 -0.210901 -1.24961 -2.87938 -0.210901 -1.24962 -8.30753e-012 -9.0191e-006 -5.27751e-005 10.3245 21.2488 -6.8715 178.799 -16.248 -94.2865 -29.7587 -47.9462 -2.452 -6.49976e-006 0 -1.59028e-015 -47.6167 -28.4159 -38.2102 178.751 7.0521 100.071 67.5014 65.5562 -78.4875 -1.58657 -2.38542e-015 -0 -41.1276 15.0575 22.2792 -17.0475 2.20723 -178.653 -32.4017 7.95139e-016 -0 22.4597 4.99326 -1.27115 90 -1.78083e-020 -1.98785e-016 -14.9185 -6.51677 179.308 -31.4936 -1.59028e-015 -1.19271e-015 23.6606 -0.576796 -0.533095 90 5.5214e-021 -0 
519.519 85.7923 -170.528 164.447 -82.6894 74.6785 -1.44409 -0.116248 -0.636507 -2.88938 -0.215949 -1.27556 -2.88938 -0.215948 -1.27557 -8.30743e-012 -9.0191e-006 -5.27751e-005 10.4582 20.9834 -6.67083 178.789 -16.229 -94.3257 -29.769 -48.1446 -2.43828 -6.5402e-006 0 1.59028e-015 -47.6638 -28.3382 -38.141 178.746 7.0778 100.07 67.6739 65.535 -78.6733 -1.60673 7.95139e-016 7.95139e-016 -41.1098 14.9777 22.1653 -17.0211 2.1514 -178.722 -32.3539 -7.95139e-016 -7.95139e-016 22.4731 4.95222 -1.24035 90 -6.91952e-021 -9.93923e-017 -14.9156 -6.51237 179.25 -31.478 7.95139e-016 3.97569e-016 23.6903 -0.563201 -0.495706 90 3.30573e-020 2.38542e-015 
519.484 85.7918 -170.57 164.572 -82.6066 74.7917 -1.4488 -0.121171 -0.638293 -2.89886 -0.225694 -1.27926 -2.89886 -0.225694 -1.27927 -8.30746e-012 -9.0191e-006 -5.27751e-005 10.5487 20.7486 -6.5366 178.774 -16.2271 -94.3792 -29.7027 -48.1089 -2.35757 -6.58075e-006 -6.36111e-015 -0 -47.6931 -28.278 -38.1794 178.742 7.08885 100.089 67.5131 65.4812 -78.5434 -1.63458 -7.95139e-016 -7.95139e-016 -41.0184 14.8804 22.1063 -17.0626 2.1264 -178.748 -32.338 -2.38542e-015 -1.19271e-015 22.4969 4.91383 -1.21134 90 -2.02372e-020 -1.98785e-016 -14.9467 -6.48675 179.237 -31.4392 7.95139e-016 -0 23.7029 -0.553678 -0.462936 90 1.00949e-020 -7.95139e-016 
519.455 85.7914 -170.612 164.621 -82.5249 74.8342 -1.45639 -0.127998 -0.636325 -2.91415 -0.239155 -1.28777 -2.91415 -0.239155 -1.28778 -8.30753e-012 -9.0191e-006 -5.27751e-005 10.6633 20.5705 -6.46538 178.744 -16.1486 -94.5056 -29.4533 -48.0844 -2.16178 -6.62142e-006 6.36111e-015 1.59028e-015 -47.6378 -28.1594 -37.9909 178.736 7.11122 100.105 67.2671 65.4052 -78.3566 -1.63781 1.59028e-015 -0 -41.0213 14.6929 21.9386 -17.1026 2.12743 -178.762 -32.3194 0 -0 22.5179 4.93702 -1.19396 90 4.63469e-020 -0 -14.9849 -6.56999 179.213 -31.4074 7.95139e-016 3.97569e-016 23.7141 -0.587912 -0.440696 90 4.45503e-021 -7.95139e-016 
519.428 85.7909 -170.65 164.91 -82.4518 75.1064 -1.4688 -0.135945 -0.63267 -2.93906 -0.254977 -1.28238 -2.93906 -0.254977 -1.28239 -8.30751e-012 -9.0191e-006 -5.27751e-005 10.8737 20.3888 -6.45142 178.724 -16.0949 -94.5941 -29.1948 -47.9565 -1.97576 -6.66218e-006 -3.18055e-015 -0 -47.5755 -28.1609 -37.9171 178.741 7.08357 100.101 66.6325 65.3275 -77.7789 -1.68497 -7.95139e-016 -7.95139e-016 -41.0108 14.5388 21.7079 -17.1535 2.16109 -178.761 -32.3137 7.95139e-016 1.19271e-015 22.5409 4.94638 -1.17379 90 -2.74885e-020 -0 -15.004 -6.44696 179.227 -31.3609 7.95139e-016 -0 23.7248 -0.527464 -0.415537 90 1.94908e-021 -0 
519.405 85.79 -170.687 165.239 -82.4135 75.4282 -1.47632 -0.150286 -0.630702 -2.95422 -0.283801 -1.26488 -2.95422 -0.2838 -1.26489 -8.30748e-012 -9.0191e-006 -5.27751e-005 11.0856 20.1914 -6.51097 178.719 -16.1361 -94.5983 -29.066 -47.86 -1.89146 -6.70305e-006 -1.90833e-014 -4.77083e-015 -47.638 -28.1617 -37.9247 178.733 7.10032 100.141 66.7618 65.3438 -78.0139 -1.7281 0 1.59028e-015 -40.9562 14.5704 21.7209 -17.1678 2.18066 -178.765 -32.3024 0 -1.98785e-016 22.5627 4.94215 -1.16049 90 -2.51188e-021 -9.93923e-017 -15.0194 -6.44318 179.218 -31.3375 7.95139e-016 -0 23.7332 -0.548445 -0.394397 90 -1.37916e-020 -1.59028e-015 
